<?xml version="1.0" encoding="UTF-8"?>
<!DOCTYPE svg PUBLIC "-//W3C//DTD SVG 1.1//EN" "http://www.w3.org/Graphics/SVG/1.1/DTD/svg11.dtd">
<!-- Creator: CorelDRAW X7 -->
<svg xmlns="http://www.w3.org/2000/svg" xml:space="preserve" width="1123px" height="794px" version="1.1" style="shape-rendering:geometricPrecision; text-rendering:geometricPrecision; image-rendering:optimizeQuality; fill-rule:evenodd; clip-rule:evenodd"
viewBox="0 0 1123 794"
 xmlns:xlink="http://www.w3.org/1999/xlink">
 <defs>
  <style type="text/css">
   <![CDATA[
    .fil0 {fill:white}
   ]]>
  </style>
 </defs>
 <g id="Layer_x0020_1">
  <metadata id="CorelCorpID_0Corel-Layer"/>
  <g id="_2429734487424">
   <path class="fil0" d="M630 573c-1,0 -2,0 -2,0 -1,-1 -1,-1 -1,-1 0,0 -1,0 -1,0 0,0 1,-1 1,-1 0,0 0,0 0,0 0,0 0,-1 0,-1 0,0 0,0 0,0l-3 0c0,0 0,0 0,1l0 2c0,1 0,1 0,1 1,0 1,-1 1,-1 0,0 0,0 0,0 0,0 1,0 1,0 1,1 2,2 3,2 1,0 2,-1 3,-1 0,0 1,0 2,-1l0 0c0,0 0,0 0,0 0,0 0,0 0,-1l1 0c0,-1 1,-2 1,-2 0,-1 0,-1 0,-1 0,-1 -1,-1 -2,0 0,0 0,0 0,1 0,0 0,0 0,1 0,0 0,0 -1,0 0,0 0,0 0,0 0,0 0,1 0,1 -1,0 -2,1 -3,1z"/>
   <path class="fil0" d="M623 567c0,0 0,0 0,1 0,0 0,0 0,0l0 0c1,0 1,0 2,-1 0,0 0,0 0,0 0,0 0,0 0,-1 0,0 0,0 0,0 2,-3 5,-4 7,-2 0,0 0,0 0,0 0,0 1,0 1,0 0,0 -1,1 -1,1 0,0 0,0 0,0 0,1 0,1 0,1l3 0c0,0 1,0 1,-1l0 -2c0,0 -1,-1 -1,-1 0,0 0,0 -1,1 0,0 0,0 0,0l-1 0c0,0 0,0 0,0 -1,-1 -2,-1 -3,-1 -1,0 -2,0 -3,0 -1,0 -1,1 -2,1 0,0 0,1 -1,1 0,0 0,1 0,1 -1,0 -1,1 -1,2 0,0 0,0 0,0z"/>
  </g>
 </g>
</svg>
