<?xml version="1.0" encoding="UTF-8"?>
<!DOCTYPE svg PUBLIC "-//W3C//DTD SVG 1.1//EN" "http://www.w3.org/Graphics/SVG/1.1/DTD/svg11.dtd">
<!-- Creator: CorelDRAW -->
<svg xmlns="http://www.w3.org/2000/svg" xml:space="preserve" width="135mm" height="135mm" version="1.1" style="shape-rendering:geometricPrecision; text-rendering:geometricPrecision; image-rendering:optimizeQuality; fill-rule:evenodd; clip-rule:evenodd"
viewBox="0 0 13500 13500"
 xmlns:xlink="http://www.w3.org/1999/xlink"
 xmlns:xodm="http://www.corel.com/coreldraw/odm/2003"
 data-name="Layer 1">
 <defs>
  <style type="text/css">
   <![CDATA[
    .fil1 {fill:white}
    .fil0 {fill:white;fill-rule:nonzero}
   ]]>
  </style>
 </defs>
 <g id="Layer_x0020_1">
  <metadata id="CorelCorpID_0Corel-Layer"/>
  <g id="_3078823026000">
   <g>
    <path class="fil0" d="M6343.51 4371.84c0,-220.91 179.09,-400 400,-400 220.91,0 400,179.09 400,400l-800 0zm0 2886.75l0 -2886.75 800 0 0 2886.75 -800 0zm800 0c0,220.91 -179.09,400 -400,400 -220.91,0 -400,-179.09 -400,-400l800 0z"/>
   </g>
   <g>
    <path class="fil1" d="M6743.51 9847.42c853.58,0 1626.29,-345.91 2185.56,-905.18 559.26,-559.26 905.18,-1331.97 905.18,-2185.55 0,-853.58 -345.91,-1626.29 -905.18,-2185.56 -559.27,-559.27 -1331.98,-905.18 -2185.56,-905.18 -853.56,0 -1626.25,345.94 -2185.52,905.2 -559.28,559.29 -905.22,1332.02 -905.22,2185.54 0,853.58 345.92,1626.29 905.18,2185.55 559.27,559.27 1331.98,905.18 2185.56,905.18zm0 800c2148.85,0 3890.74,-1741.88 3890.74,-3890.73 0,-2148.86 -1741.89,-3890.74 -3890.74,-3890.74 -2148.86,0 -3890.74,1742.07 -3890.74,3890.74 0,2148.85 1741.88,3890.73 3890.74,3890.73z"/>
   </g>
   <g>
    <path class="fil0" d="M10856.06 11191.61c-162,150.19 -415.09,140.62 -565.28,-21.38 -150.19,-162 -140.62,-415.09 21.38,-565.28l543.9 586.66zm697.89 -2335.52l733.2 320.02 -0.04 0.08 -31.69 71.33 -32.6 70.86 -33.47 70.36 -34.36 69.93 -35.26 69.44 -36.1 68.93 -37 68.46 -37.84 67.92 -38.69 67.4 -39.57 66.93 -40.41 66.38 -41.23 65.82 -42.07 65.28 -42.92 64.74 -43.72 64.16 -44.54 63.6 -45.37 63.05 -46.17 62.43 -46.96 61.84 -47.78 61.27 -48.57 60.64 -49.32 59.99 -50.11 59.41 -50.92 58.79 -51.67 58.13 -52.41 57.47 -53.19 56.82 -53.94 56.18 -54.69 55.49 -55.42 54.8 -56.17 54.14 -56.89 53.43 -543.9 -586.66 49.37 -46.37 48.73 -46.96 48.1 -47.58 47.45 -48.15 46.8 -48.72 46.15 -49.32 45.51 -49.89 44.83 -50.43 44.14 -50.97 43.49 -51.55 42.84 -52.11 42.13 -52.62 41.44 -53.13 40.76 -53.68 40.07 -54.19 39.35 -54.67 38.66 -55.2 37.96 -55.7 37.22 -56.16 36.51 -56.66 35.81 -57.14 35.05 -57.58 34.31 -58.03 33.59 -58.54 32.86 -58.96 32.08 -59.38 31.36 -59.85 30.58 -60.24 29.82 -60.67 29.07 -61.12 28.28 -61.48 27.51 -61.89 -0.04 0.08zm0.04 -0.08c88.41,-202.44 324.21,-294.88 526.65,-206.47 202.44,88.41 294.88,324.21 206.47,526.65l-733.12 -320.18zm438.34 -2099.51l800 0 0 0 -0.5 78.03 -1.51 77.98 -2.52 77.88 -3.51 77.84 -4.52 77.73 -5.52 77.63 -6.51 77.52 -7.5 77.4 -8.49 77.27 -9.5 77.18 -10.48 76.98 -11.45 76.81 -12.45 76.68 -13.42 76.49 -14.41 76.32 -15.39 76.13 -16.36 75.91 -17.33 75.68 -18.3 75.5 -19.29 75.25 -20.23 74.99 -21.22 74.77 -22.17 74.48 -23.14 74.23 -24.1 73.94 -25.04 73.64 -26.01 73.38 -26.97 73.06 -27.92 72.73 -28.86 72.39 -29.8 72.06 -30.76 71.73 -733.2 -320.02 26.68 -62.23 25.88 -62.56 25.06 -62.85 24.22 -63.11 23.39 -63.38 22.57 -63.64 21.74 -63.94 20.92 -64.18 20.06 -64.39 19.25 -64.66 18.4 -64.85 17.57 -65.11 16.73 -65.29 15.88 -65.48 15.05 -65.72 14.2 -65.87 13.35 -66.03 12.49 -66.22 11.66 -66.39 10.79 -66.52 9.95 -66.69 9.1 -66.82 8.22 -66.9 7.37 -67.05 6.52 -67.18 5.65 -67.26 4.78 -67.37 3.92 -67.43 3.05 -67.52 2.18 -67.6 1.31 -67.64 0.44 -67.71 0 0zm0 0c0,-220.91 179.09,-400 400,-400 220.91,0 400,179.09 400,400l-800 0zm-438.38 -2099.6l733.2 -320.02 -0.04 -0.08 30.78 71.71 29.84 72.1 28.87 72.4 27.92 72.73 26.98 73.05 26.02 73.37 25.06 73.65 24.1 73.94 23.15 74.25 22.17 74.49 21.21 74.73 20.25 75.01 19.28 75.27 18.3 75.46 17.34 75.7 16.35 75.94 15.38 76.1 14.4 76.29 13.43 76.52 12.43 76.68 11.46 76.8 10.47 77.02 9.48 77.15 8.49 77.28 7.5 77.4 6.51 77.53 5.5 77.63 4.52 77.73 3.51 77.85 2.51 77.91 1.51 77.96 0.5 78.05 -800 0 -0.44 -67.73 -1.31 -67.68 -2.17 -67.61 -3.05 -67.51 -3.92 -67.47 -4.78 -67.37 -5.65 -67.27 -6.5 -67.18 -7.37 -67.06 -8.22 -66.93 -9.09 -66.78 -9.94 -66.7 -10.79 -66.52 -11.65 -66.36 -12.5 -66.23 -13.34 -66.06 -14.19 -65.84 -15.04 -65.68 -15.88 -65.5 -16.72 -65.27 -17.57 -65.07 -18.41 -64.89 -19.23 -64.63 -20.07 -64.37 -20.92 -64.16 -21.74 -63.91 -22.58 -63.65 -23.4 -63.39 -24.24 -63.11 -25.05 -62.82 -25.88 -62.52 -26.7 -62.25 -0.04 -0.08zm0.04 0.08c-88.41,-202.44 4.03,-438.24 206.47,-526.65 202.44,-88.41 438.24,4.03 526.65,206.47l-733.12 320.18zm-1241.83 -1748.94l543.9 -586.66 56.89 53.43 56.17 54.14 55.41 54.79 54.69 55.49 53.96 56.19 53.17 56.81 52.43 57.47 51.67 58.12 50.91 58.78 50.12 59.4 49.35 60.01 48.58 60.66 47.76 61.25 46.97 61.84 46.17 62.43 45.37 63.03 44.57 63.62 43.73 64.18 42.9 64.72 42.1 65.3 41.24 65.84 40.39 66.36 39.57 66.93 38.69 67.4 37.85 67.94 37 68.48 36.1 68.93 35.24 69.44 34.36 69.93 33.46 70.39 32.58 70.86 31.69 71.34 -733.2 320.02 -27.49 -61.88 -28.26 -61.48 -29.06 -61.09 -29.8 -60.67 -30.58 -60.24 -31.34 -59.85 -32.06 -59.36 -32.85 -58.94 -33.59 -58.54 -34.31 -58.03 -35.07 -57.6 -35.78 -57.12 -36.5 -56.64 -37.24 -56.18 -37.95 -55.68 -38.65 -55.18 -39.37 -54.69 -40.07 -54.19 -40.77 -53.68 -41.46 -53.15 -42.12 -52.6 -42.83 -52.09 -43.5 -51.56 -44.17 -50.98 -44.83 -50.44 -45.51 -49.89 -46.17 -49.33 -46.78 -48.71 -47.47 -48.15 -48.11 -47.59 -48.73 -46.96 -49.37 -46.37zm0 0c-162,-150.19 -171.57,-403.28 -21.38,-565.28 150.19,-162 403.28,-171.57 565.28,-21.38l-543.9 586.66z"/>
   </g>
   <g>
    <path class="fil0" d="M2630.94 2321.19c162,-150.19 415.1,-140.63 565.29,21.37 150.19,162 140.63,415.1 -21.37,565.29l-543.92 -586.66zm-697.87 2335.53l-733.2 -320.04 0.05 -0.11 31.69 -71.3 32.6 -70.84 33.47 -70.36 34.36 -69.91 35.25 -69.42 36.12 -68.93 36.99 -68.45 37.83 -67.9 38.7 -67.42 39.56 -66.9 40.4 -66.38 41.24 -65.83 42.07 -65.27 42.91 -64.75 43.73 -64.17 44.54 -63.6 45.36 -63.03 46.16 -62.44 46.97 -61.86 47.77 -61.25 48.54 -60.64 49.37 -60.06 50.12 -59.39 50.89 -58.77 51.66 -58.13 52.42 -57.48 53.2 -56.85 53.94 -56.16 54.66 -55.49 55.45 -54.83 56.17 -54.14 56.88 -53.43 543.92 586.66 -49.38 46.37 -48.73 46.96 -48.07 47.55 -47.46 48.17 -46.82 48.74 -46.12 49.29 -45.5 49.9 -44.84 50.45 -44.17 51.01 -43.5 51.55 -42.79 52.06 -42.14 52.64 -41.45 53.15 -40.75 53.68 -40.08 54.2 -39.36 54.69 -38.66 55.2 -37.95 55.69 -37.23 56.17 -36.51 56.67 -35.8 57.13 -35.06 57.6 -34.32 58.04 -33.58 58.52 -32.87 58.98 -32.09 59.37 -31.34 59.83 -30.59 60.26 -29.82 60.65 -29.07 61.1 -28.28 61.48 -27.51 61.88 0.05 -0.11zm-0.05 0.11c-88.43,202.43 -324.25,294.85 -526.68,206.42 -202.43,-88.43 -294.85,-324.25 -206.42,-526.68l733.1 320.26zm-438.15 2099.67l-800 0 0 0 0.5 -78.05 1.51 -77.96 2.51 -77.91 3.51 -77.86 4.52 -77.73 5.5 -77.64 6.51 -77.54 7.5 -77.4 8.49 -77.29 9.47 -77.12 10.47 -77.02 11.46 -76.84 12.43 -76.67 13.42 -76.52 14.4 -76.33 15.38 -76.12 16.35 -75.9 17.32 -75.71 18.3 -75.47 19.26 -75.26 20.25 -75.02 21.2 -74.75 22.16 -74.5 23.13 -74.21 24.09 -73.97 25.06 -73.67 25.99 -73.36 26.97 -73.05 27.91 -72.74 28.87 -72.41 29.8 -72.06 30.76 -71.74 733.2 320.04 -26.68 62.22 -25.88 62.56 -25.05 62.83 -24.21 63.1 -23.39 63.39 -22.57 63.66 -21.74 63.91 -20.89 64.15 -20.07 64.43 -19.24 64.64 -18.4 64.87 -17.55 65.08 -16.72 65.3 -15.88 65.51 -15.04 65.69 -14.19 65.88 -13.34 66.06 -12.5 66.23 -11.64 66.36 -10.79 66.55 -9.94 66.68 -9.07 66.8 -8.23 66.96 -7.37 67.07 -6.5 67.18 -5.65 67.28 -4.78 67.38 -3.92 67.47 -3.05 67.5 -2.17 67.63 -1.31 67.68 -0.44 67.73 0 0zm0 0c0,220.91 -179.09,400 -400,400 -220.91,0 -400,-179.09 -400,-400l800 0zm438.39 2099.59l-733.2 320.02 0.04 0.09 -30.78 -71.72 -29.83 -72.07 -28.88 -72.41 -27.93 -72.75 -26.99 -73.08 -26 -73.34 -25.07 -73.65 -24.1 -73.96 -23.14 -74.21 -22.18 -74.49 -21.21 -74.77 -20.25 -75.01 -19.26 -75.22 -18.32 -75.49 -17.33 -75.7 -16.36 -75.91 -15.38 -76.13 -14.4 -76.31 -13.42 -76.49 -12.44 -76.65 -11.46 -76.87 -10.46 -76.99 -9.49 -77.12 -8.49 -77.3 -7.5 -77.4 -6.51 -77.53 -5.5 -77.63 -4.52 -77.73 -3.51 -77.85 -2.51 -77.91 -1.51 -77.97 -0.5 -78.04 800 0 0.44 67.72 1.31 67.69 2.17 67.61 3.05 67.51 3.92 67.47 4.78 67.37 5.65 67.27 6.5 67.18 7.37 67.02 8.23 66.96 9.08 66.81 9.94 66.65 10.8 66.53 11.64 66.39 12.5 66.21 13.34 66.03 14.2 65.87 15.03 65.68 15.88 65.47 16.74 65.32 17.55 65.07 18.41 64.85 19.24 64.63 20.08 64.41 20.9 64.14 21.75 63.91 22.58 63.68 23.39 63.36 24.23 63.09 25.06 62.81 25.89 62.55 26.7 62.24 0.04 0.09zm-0.04 -0.09c88.42,202.44 -4.02,438.24 -206.46,526.66 -202.44,88.42 -438.24,-4.02 -526.66,-206.46l733.12 -320.2zm1241.77 1748.91l-543.8 586.74 -56.9 -53.41 -56.17 -54.12 -55.42 -54.79 -54.7 -55.5 -53.95 -56.17 -53.19 -56.81 -52.42 -57.47 -51.69 -58.13 -50.89 -58.77 -50.14 -59.4 -49.36 -60.05 -48.54 -60.62 -47.79 -61.26 -46.98 -61.86 -46.16 -62.43 -45.37 -63.04 -44.56 -63.6 -43.74 -64.19 -42.91 -64.74 -42.09 -65.32 -41.23 -65.83 -40.4 -66.37 -39.57 -66.93 -38.68 -67.4 -37.86 -67.96 -37 -68.49 -36.09 -68.91 -35.24 -69.44 -34.36 -69.94 -33.47 -70.4 -32.57 -70.85 -31.69 -71.34 733.2 -320.02 27.49 61.88 28.27 61.49 29.05 61.1 29.8 60.66 30.58 60.24 31.35 59.87 32.06 59.37 32.84 58.94 33.6 58.54 34.31 58.05 35.06 57.59 35.79 57.15 36.51 56.64 37.23 56.18 37.94 55.67 38.66 55.2 39.37 54.7 40.08 54.19 40.74 53.66 41.45 53.14 42.16 52.64 42.8 52.07 43.5 51.54 44.17 50.99 44.83 50.43 45.5 49.87 46.15 49.31 46.81 48.73 47.44 48.12 48.1 47.55 48.73 46.96 49.36 46.35zm0 0c162.02,150.16 171.63,403.25 21.47,565.27 -150.16,162.02 -403.25,171.63 -565.27,21.47l543.8 -586.74z"/>
   </g>
   <g>
    <path class="fil0" d="M6741.03 8741.34c220.91,0 400,179.09 400,400 0,220.91 -179.09,400 -400,400l0 -800zm-588.33 211.67l800 0 0 0 -0.27 -10.41 -0.81 -10.76 -1.32 -10.41 -1.84 -10.33 -2.42 -10.54 -2.92 -10.28 -3.36 -9.94 -3.84 -9.75 -4.26 -9.44 -4.69 -9.16 -5.17 -9.01 -5.36 -8.36 -5.87 -8.26 -6.44 -8.21 -6.5 -7.5 -6.85 -7.18 -7.51 -7.16 -7.62 -6.6 -7.72 -6.06 -8.27 -5.88 -8.71 -5.58 -8.9 -5.12 -9.09 -4.65 -9.6 -4.34 -9.73 -3.83 -10.07 -3.4 -10.08 -2.86 -10.29 -2.36 -10.59 -1.89 -10.42 -1.32 -10.74 -0.81 -10.41 -0.27 0 800 -29.81 -0.75 -29.88 -2.27 -29.28 -3.72 -29.13 -5.19 -28.53 -6.58 -27.96 -7.92 -27.57 -9.32 -26.85 -10.57 -26.28 -11.88 -25.33 -12.97 -24.68 -14.18 -23.99 -15.38 -23.03 -16.38 -21.94 -17.24 -21.3 -18.42 -20.59 -19.64 -19.31 -20.26 -18.34 -21.16 -17.62 -22.43 -16.35 -23.04 -15.16 -23.64 -14.23 -24.77 -13.01 -25.42 -11.8 -26.12 -10.58 -26.85 -9.28 -27.44 -8 -28.16 -6.62 -28.78 -5.14 -28.89 -3.72 -29.25 -2.27 -29.9 -0.75 -29.81 0 0zm0 0c0,-220.91 179.09,-400 400,-400 220.91,0 400,179.09 400,400l-800 0zm588.33 -588.34l0 800 10.41 -0.26 10.54 -0.8 10.82 -1.37 10.59 -1.89 10.29 -2.37 10.08 -2.87 10.06 -3.4 9.73 -3.83 9.59 -4.35 9.25 -4.73 8.72 -5.02 8.55 -5.49 8.41 -5.98 7.84 -6.16 7.49 -6.49 7.38 -7.05 6.95 -7.29 6.58 -7.6 6.26 -7.98 5.87 -8.27 5.41 -8.45 5.07 -8.82 4.7 -9.18 4.3 -9.52 3.84 -9.75 3.35 -9.88 2.9 -10.25 2.44 -10.57 1.84 -10.36 1.33 -10.43 0.81 -10.79 0.27 -10.46 -800 0 0.75 -29.82 2.27 -29.91 3.73 -29.25 5.14 -28.9 6.64 -28.79 7.98 -28.11 9.27 -27.38 10.58 -26.85 11.84 -26.2 13.02 -25.42 14.13 -24.58 15.21 -23.75 16.35 -23.03 17.44 -22.22 18.42 -21.28 19.41 -20.37 20.46 -19.53 21.17 -18.33 22.06 -17.36 23.17 -16.48 23.83 -15.29 24.5 -14.1 25.49 -13.07 26.27 -11.89 26.85 -10.59 27.56 -9.32 27.96 -7.95 28.53 -6.59 29.13 -5.21 29.68 -3.77 29.68 -2.24 29.81 -0.76zm0 0c220.91,0 400,179.09 400,400 0,220.91 -179.09,400 -400,400l0 -800z"/>
   </g>
   <g>
    <path class="fil0" d="M6741.03 9541.34c-220.91,0 -400,-179.09 -400,-400 0,-220.91 179.09,-400 400,-400l0 800zm-211.67 -588.33l800 0 0 0 -0.75 29.81 -2.27 29.9 -3.72 29.25 -5.14 28.89 -6.62 28.78 -8 28.16 -9.28 27.44 -10.58 26.85 -11.8 26.12 -13.01 25.42 -14.23 24.77 -15.16 23.64 -16.35 23.04 -17.62 22.43 -18.34 21.16 -19.31 20.26 -20.59 19.64 -21.3 18.42 -21.94 17.24 -23.03 16.38 -23.99 15.38 -24.68 14.18 -25.33 12.97 -26.28 11.88 -26.85 10.57 -27.57 9.32 -27.96 7.92 -28.53 6.58 -29.13 5.19 -29.28 3.72 -29.88 2.27 -29.81 0.75 0 -800 -10.41 0.27 -10.74 0.81 -10.42 1.32 -10.59 1.89 -10.29 2.36 -10.08 2.86 -10.07 3.4 -9.73 3.83 -9.6 4.34 -9.09 4.65 -8.9 5.12 -8.71 5.58 -8.27 5.88 -7.72 6.06 -7.62 6.6 -7.51 7.16 -6.85 7.18 -6.5 7.5 -6.44 8.21 -5.87 8.26 -5.36 8.36 -5.17 9.01 -4.69 9.16 -4.26 9.44 -3.84 9.75 -3.36 9.94 -2.92 10.28 -2.42 10.54 -1.84 10.33 -1.32 10.41 -0.81 10.76 -0.27 10.41 0 0zm0 0c0,-220.91 179.09,-400 400,-400 220.91,0 400,179.09 400,400l-800 0zm211.67 211.66l0 -800 29.81 0.76 29.68 2.24 29.68 3.77 29.13 5.21 28.53 6.59 27.96 7.95 27.56 9.32 26.85 10.59 26.27 11.89 25.49 13.07 24.5 14.1 23.83 15.29 23.17 16.48 22.06 17.36 21.17 18.33 20.46 19.53 19.41 20.37 18.42 21.28 17.44 22.22 16.35 23.03 15.21 23.75 14.13 24.58 13.02 25.42 11.84 26.2 10.58 26.85 9.27 27.38 7.98 28.11 6.64 28.79 5.14 28.9 3.73 29.25 2.27 29.91 0.75 29.82 -800 0 0.27 10.46 0.81 10.79 1.33 10.43 1.84 10.36 2.44 10.57 2.9 10.25 3.35 9.88 3.84 9.75 4.3 9.52 4.7 9.18 5.07 8.82 5.41 8.45 5.87 8.27 6.26 7.98 6.58 7.6 6.95 7.29 7.38 7.05 7.49 6.49 7.84 6.16 8.41 5.98 8.55 5.49 8.72 5.02 9.25 4.73 9.59 4.35 9.73 3.83 10.06 3.4 10.08 2.87 10.29 2.37 10.59 1.89 10.82 1.37 10.54 0.8 10.41 0.26zm0 0c-220.91,0 -400,-179.09 -400,-400 0,-220.91 179.09,-400 400,-400l0 800z"/>
   </g>
  </g>
 </g>
</svg>
