<?xml version="1.0" encoding="UTF-8"?>
<!DOCTYPE svg PUBLIC "-//W3C//DTD SVG 1.1//EN" "http://www.w3.org/Graphics/SVG/1.1/DTD/svg11.dtd">
<!-- Creator: CorelDRAW -->
<svg xmlns="http://www.w3.org/2000/svg" xml:space="preserve" width="135mm" height="135mm" version="1.1" style="shape-rendering:geometricPrecision; text-rendering:geometricPrecision; image-rendering:optimizeQuality; fill-rule:evenodd; clip-rule:evenodd"
viewBox="0 0 13500 13500"
 xmlns:xlink="http://www.w3.org/1999/xlink"
 xmlns:xodm="http://www.corel.com/coreldraw/odm/2003"
 data-name="Layer 1">
 <defs>
  <style type="text/css">
   <![CDATA[
    .fil0 {fill:white;fill-rule:nonzero}
   ]]>
  </style>
 </defs>
 <g id="Layer_x0020_1">
  <metadata id="CorelCorpID_0Corel-Layer"/>
  <path class="fil0" d="M8835.19 5460.19l-1289.81 1289.81 1289.81 1289.81c219.94,219.94 219.94,575.44 0,795.37 -109.69,109.69 -253.68,164.81 -397.68,164.81 -144,0 -288.01,-55.13 -397.69,-164.81l-1289.81 -1289.81 -1289.81 1289.81c-109.69,109.69 -253.69,164.81 -397.69,164.81 -144,0 -288,-55.13 -397.68,-164.81 -219.94,-219.94 -219.94,-575.44 0,-795.37l1289.81 -1289.81 -1289.81 -1289.81c-219.94,-219.94 -219.94,-575.44 0,-795.37 219.94,-219.93 575.44,-219.94 795.37,0l1289.81 1289.81 1289.81 -1289.81c219.94,-219.94 575.44,-219.94 795.37,0 219.93,219.94 219.94,575.44 0,795.37zm4664.81 1289.81c0,3722.07 -3027.93,6750 -6750,6750 -3722.07,0 -6750,-3027.93 -6750,-6750 0,-3722.07 3027.93,-6750 6750,-6750 3722.07,0 6750,3027.93 6750,6750zm-1125 0c0,-3101.63 -2523.38,-5625 -5625,-5625 -3101.62,0 -5625,2523.37 -5625,5625 0,3101.63 2523.38,5625 5625,5625 3101.62,0 5625,-2523.38 5625,-5625z"/>
 </g>
</svg>
