<svg width="24" height="24" fill="none" xmlns="http://www.w3.org/2000/svg"><path opacity=".4" d="M11.991 18.622L5.5 21.864a1.02 1.02 0 01-1.376-.4A1.09 1.09 0 014 20.967v-7.258c0 .72.406 1.164 1.473 1.661l6.518 3.252z" fill="#fff" fill-opacity=".5"/><path fill-rule="evenodd" clip-rule="evenodd" d="M8.895 2h6.175c2.707 0 4.904 1.066 4.93 3.793v15.174c-.001.17-.044.338-.123.488a1.008 1.008 0 01-1.402.409l-6.484-3.242-6.518-3.252C4.406 14.873 4 14.428 4 13.71V5.793C4 3.066 6.196 2 8.895 2zm-.67 7.622h7.524a.788.788 0 00.785-.79.788.788 0 00-.785-.791H8.225a.788.788 0 00-.785.79c0 .437.351.791.785.791z" fill="#fff" fill-opacity=".5"/></svg>