<svg width="24" height="24" fill="none" xmlns="http://www.w3.org/2000/svg"><path d="M9.144 20.782v-3.067c0-.777.632-1.408 1.414-1.413h2.875c.786 0 1.423.633 1.423 1.413v3.058c0 .674.548 1.222 1.227 1.227h1.96a3.46 3.46 0 002.444-1 3.41 3.41 0 001.013-2.422V9.866c0-.735-.328-1.431-.895-1.902l-6.662-5.29a3.115 3.115 0 00-3.958.071L3.467 7.963A2.474 2.474 0 002.5 9.867v8.703C2.5 20.464 4.047 22 5.956 22h1.916c.327.002.641-.125.873-.354.232-.228.363-.54.363-.864h.036z" fill="#fff" fill-opacity=".5"/></svg>