<?xml version="1.0" encoding="UTF-8"?>
<!DOCTYPE svg PUBLIC "-//W3C//DTD SVG 1.1//EN" "http://www.w3.org/Graphics/SVG/1.1/DTD/svg11.dtd">
<!-- Creator: CorelDRAW X7 -->
<svg xmlns="http://www.w3.org/2000/svg" xml:space="preserve" width="32px" height="32px" version="1.1" style="shape-rendering:geometricPrecision; text-rendering:geometricPrecision; image-rendering:optimizeQuality; fill-rule:evenodd; clip-rule:evenodd"
viewBox="0 0 32 32"
 xmlns:xlink="http://www.w3.org/1999/xlink">
 <defs>
  <style type="text/css">
   <![CDATA[
    .str1 {stroke:white;stroke-width:1.99976}
    .str2 {stroke:white;stroke-width:0.755911}
    .str3 {stroke:white;stroke-width:0.755911}
    .str0 {stroke:white;stroke-width:2.99983;stroke-linecap:round}
    .fil0 {fill:none}
    .fil1 {fill:white}
    .fil2 {fill:white;fill-rule:nonzero}
   ]]>
  </style>
 </defs>
 <g id="Layer_x0020_1">
  <metadata id="CorelCorpID_0Corel-Layer"/>
  <g id="_1865888174992">
   <path class="fil0 str0" d="M25 25c-2,2 -6,4 -9,4 -7,0 -13,-6 -13,-13 0,-7 6,-13 13,-13 7,0 13,6 13,13"/>
   <path class="fil1 str1" d="M28 20c0,0 0,0 0,0 0,1 0,1 0,1 -1,0 -1,0 -1,-1 0,0 0,0 1,0z"/>
   <path class="fil0 str2" d="M12 16c3,0 7,0 10,0"/>
   <polygon class="fil2" points="10,22 10,10 12,10 12,11 11,11 11,21 12,21 12,22 "/>
   <polyline class="fil0 str3" points="19,12 22,16 18,19 "/>
  </g>
 </g>
</svg>
