<?xml version="1.0" encoding="UTF-8"?>
<!-- Generator: Adobe Illustrator 25.0.0, SVG Export Plug-In . SVG Version: 6.00 Build 0)  -->
<svg xmlns="http://www.w3.org/2000/svg" xmlns:xlink="http://www.w3.org/1999/xlink" version="1.1" id="Capa_1" x="0px" y="0px" viewBox="0 0 511.494 511.494" style="enable-background:new 0 0 511.494 511.494;" xml:space="preserve" width="512" height="512">
<g>
	<path d="M478.291,255.492c-16.133,0.143-29.689,12.161-31.765,28.16c-15.37,105.014-112.961,177.685-217.975,162.315   S50.866,333.006,66.236,227.992S179.197,50.307,284.211,65.677c35.796,5.239,69.386,20.476,96.907,43.959l-24.107,24.107   c-8.33,8.332-8.328,21.84,0.004,30.17c4.015,4.014,9.465,6.262,15.142,6.246h97.835c11.782,0,21.333-9.551,21.333-21.333V50.991   c-0.003-11.782-9.556-21.331-21.338-21.329c-5.655,0.001-11.079,2.248-15.078,6.246l-28.416,28.416   C320.774-29.34,159.141-19.568,65.476,86.152S-18.415,353.505,87.304,447.17s267.353,83.892,361.017-21.828   c32.972-37.216,54.381-83.237,61.607-132.431c2.828-17.612-9.157-34.183-26.769-37.011   C481.549,255.641,479.922,255.505,478.291,255.492z"/>
</g>















</svg>
